<?xml version="1.0" encoding="utf-8"?>
<?xml-stylesheet type="text/css" href="../../css/style.css" ?>
<!-- Generator: Adobe Illustrator 24.0.1, SVG Export Plug-In . SVG Version: 6.00 Build 0)  -->
<svg version="1.1" id="Layer_1" xmlns="http://www.w3.org/2000/svg" xmlns:xlink="http://www.w3.org/1999/xlink" x="0px" y="0px" viewBox="0 0 79 12.8" style="enable-background:new 0 0 79 12.8;" xml:space="preserve">
    <style type="text/css">
        
        :root {
            --pcolor: #00baef;
            --scolor: #007fab;
            --ofcolor: #b9b9b9;
            --ofcolors: #9B9B9B;
            --wtcolor: #fff;
            --scolorlogo: #58585a;
            --pcolorlogo: var(--pcolor);
        }

        .st0 {
            fill: var(--pcolor);
        }

    </style>
    <title>ayurdeva-borduere</title>
    <g id="Ebene_2">
        <g id="Ebene_1-2">
            <path id="ayurdeva-borduere" class="st0" d="M39.5,3.6c0.1-0.7,0.2-1.3,0.3-2c0.2-0.5,0-1.1-0.3-1.5c-0.4,0.4-0.5,1-0.3,1.5
			C39.3,2.3,39.4,3,39.5,3.6z M37.6,7.5l0.6-0.3c-0.5,0.1-1,0-1.5-0.1S35,7.2,34.8,6.7c-0.1,0.7,0.6,1.4,1.4,1.5
			c0.7,0,1.4-0.3,1.9-0.7l0,0c-0.5,0.5-1.3,0.5-2,0.1C36.6,7.8,37.2,7.7,37.6,7.5z M39.4,4c-0.1-0.7-0.4-2.2-1.1-2.5
			c-0.1-0.1-0.2-0.1-0.3-0.1c-0.1,0.6,0.4,1,0.7,1.4C39,3.2,39.2,3.6,39.4,4z M40,5.4c-0.2-0.3-0.3-0.6-0.5-0.6S39.1,5,38.9,5.4
			c-0.3,0.6-0.7,1-1.3,1.2c0,0.4,0.4,0.6,0.7,0.6c0.1,0,0.2,0,0.3-0.1c0.3-0.3,0.2-1,0.7-0.9c-0.5,0.2,0.1,1.2,0.2,1.3
			c0-0.2,0.7-1.2,0.2-1.3c0.5-0.1,0.4,0.6,0.7,0.9c0.3,0.2,0.7,0.1,0.9-0.2c0.1-0.1,0.1-0.2,0.1-0.3C40.8,6.4,40.3,5.9,40,5.4z
			 M17.9,2.9c0.4,0.1,0.8-0.2,0.9-0.6s-0.2-0.8-0.6-0.9S17.4,1.6,17.3,2S17.5,2.8,17.9,2.9L17.9,2.9z M20.2,4.9
			c0.5,0.1,1.1-0.3,1.2-0.8S21.1,3,20.6,2.9s-1,0.2-1.2,0.8C19.3,4.2,19.6,4.8,20.2,4.9L20.2,4.9L20.2,4.9z M40.2,2.8
			C40.5,2.4,41,1.9,41,1.4c-0.1,0-0.2,0-0.3,0.1c-0.7,0.3-1,1.8-1.1,2.5C39.7,3.5,40,3.2,40.2,2.8L40.2,2.8z M65.3,0.8
			c0.2,0,0.3-0.2,0.3-0.3l0,0c0-0.2-0.2-0.3-0.4-0.2l0,0c-0.2,0-0.3,0.2-0.2,0.3l0,0C65,0.7,65.2,0.8,65.3,0.8
			C65.3,0.8,65.4,0.8,65.3,0.8L65.3,0.8z M63.3,1.5c0.2,0,0.4-0.3,0.4-0.5c-0.1-0.3-0.3-0.4-0.6-0.4l0,0c-0.3,0.1-0.4,0.3-0.4,0.6
			l0,0C62.8,1.4,63,1.6,63.3,1.5L63.3,1.5z M58.8,4.9c0.5-0.1,0.9-0.7,0.7-1.2S58.8,2.9,58.3,3s-0.9,0.6-0.8,1.2
			C57.6,4.7,58.2,5,58.8,4.9C58.7,4.9,58.7,4.9,58.8,4.9z M61,2.9c0.4-0.1,0.7-0.5,0.6-0.9c0,0,0,0,0-0.1c-0.1-0.4-0.5-0.6-0.9-0.5
			c-0.3,0.1-0.6,0.4-0.5,0.8C60.2,2.7,60.6,3,61,2.9L61,2.9z M40.8,7.5L40.8,7.5C41.3,8,42,8.3,42.7,8.3c0.7-0.1,1.5-0.8,1.4-1.5
			c-0.2,0.6-1.4,0.3-1.9,0.4s-1,0.2-1.5,0.1l0.6,0.3c0.5,0.2,1,0.3,1.5,0.1C42.2,8,41.4,8,40.8,7.5z M15.7,1.5
			c0.3,0.1,0.5-0.1,0.6-0.4c0.1-0.3-0.1-0.5-0.4-0.6S15.4,0.7,15.3,1C15.3,1.2,15.4,1.5,15.7,1.5L15.7,1.5z M56.5,8.4
			c2.1-0.9,3.5-0.9,5.1,0.1c-1.4-0.6-2.9-0.7-4.3-0.1c1.4-0.1,2.9,0.3,4.1,1.1c1.6,0.9,1.9-0.9,3-0.5C62.1,6,59.4,6.7,56.5,8.4z
			 M41.7,8.2C41,7.9,40.5,7.4,40,6.9c0.3,1.1,1,2,2,2.5c-1.5-0.2-2.1-2.1-2.2-2.2l0,0c0.1,0.3,0.2,0.7,0.3,1
			c0.2,0.7,0.5,1.3,1.1,1.7c0.9,0.6,2.4,0.6,2.9-0.3C43.4,10,42.4,8.6,41.7,8.2z M39.5,11.3c-0.3-1.3-0.3-2.7-0.1-4
			c-0.5,1-0.8,2.1-0.8,3.2c0,0.9,0.4,1.7,0.9,2.3c0.6-0.6,0.9-1.4,0.9-2.3c0-1.1-0.3-2.2-0.8-3.2C39.8,8.6,39.8,10,39.5,11.3z
			 M59.4,6.7c1.3-0.9,2.2-1.2,3.4-0.8c-1-0.2-2.1,0-2.9,0.6c1-0.3,2-0.2,2.9,0.1C64,7,64,5.8,64.8,5.9C62.8,4.2,61.1,5.1,59.4,6.7z
			 M72,0.6c2.3,0,3.6,0.5,4.7,2c-1-1.1-2.5-1.7-4-1.7C74,1.4,75.2,2.3,76,3.5c1.2,1.4,2.1,0,2.9,0.7C78.1,0.5,75.3,0.1,72,0.6z
			 M13.6,0.8c0.1,0.1,0.3,0,0.4-0.2c0,0,0,0,0-0.1c0-0.2-0.1-0.3-0.2-0.4l0,0c-0.2,0-0.3,0.1-0.4,0.2l0,0
			C13.3,0.6,13.4,0.8,13.6,0.8L13.6,0.8z M70.6,0.9C66.2,0.1,63,2.5,59.6,5l-0.7,0.5c-2.5,1.8-4.7,3-6.8,3.1H52
			c0.5,0,0.9-0.1,1.4-0.2c1.1-0.3,2-1,2.7-1.9c0.6-0.9,0.8-2,0.5-3c0-0.2-0.1-0.4-0.2-0.6c-0.4-1.1-1.2-2-2.2-2.5
			c-0.9-0.4-2-0.5-3-0.3c-0.7,0.1-1.4,0.5-1.9,1C49,1.5,48.8,2,48.7,2.5c-0.3,1.6,0.5,3.2,2,3.9c-0.7-0.1-1.3-0.5-1.7-1
			c0.2,0.4,0.4,0.8,0.6,1.2C50.5,7.7,53,8,54.6,6c-1.3,0.1-2.1-1.8-3.8-0.9c0.4-0.3,0.5-0.9,0.3-1.4c-1,0.3-2.1,0.1-2-1.3
			c0.1-0.3,0.3-0.7,0.5-0.9c0.3-0.3,0.7-0.6,1.2-0.7c0.1,0,0.3-0.1,0.4-0.1C52.1,0.5,53.1,0.6,54,1c0.9,0.4,1.7,1.2,2,2.2
			c0.1,0.2,0.1,0.3,0.1,0.5c0.2,0.9,0,1.8-0.5,2.5C55,7,54.2,7.6,53.2,7.9c-1,0.3-2,0.3-3,0.1c-0.4-0.1-0.9-0.2-1.3-0.3
			c0-0.6-0.4-1-0.9-1.1c0,0,0,0-0.1,0c-0.2,0-0.5,0.1-0.7,0.2c-0.7-0.5-1.3-1.1-1.8-1.7c-0.8-0.9-1.8-2.3-3-2.7
			c-1-0.3-2,0.2-2.4,1.1c-0.5,1.6,1.2,3.4,2.8,2.6c0.4-0.2,0.7-0.6,0.5-1.1c-0.2-0.4-0.6-0.5-1-0.4l0,0C42,4.9,41.8,5.4,42,5.7
			c0,0,0,0,0,0.1s0.1,0.2,0.2,0.3c-0.8,0.2-1.8-1.1-1.2-2c0.4-0.6,1.1-0.9,1.8-0.7c0.9,0.3,1.7,1.4,2.3,2.1s1.2,1.3,1.9,1.8
			c0,0.1-0.1,0.2-0.1,0.3c0,0.6,0.4,1,0.9,1.1c0,0,0,0,0.1,0c0.3,0,0.6-0.1,0.8-0.3C49.8,9,51,9.2,52.2,9.2c2.3-0.1,4.6-1.3,7.1-3.2
			L60,5.5c3.3-2.5,6.3-4.8,10.6-4c1.7,0.2,3.2,1.2,3.8,2.8c0.2,0.6,0.3,1.3,0.3,2c-0.1,0.7-0.3,1.4-0.6,2c-0.5,0.8-1.2,1.5-2.1,1.8
			c-0.8,0.2-1.7-0.3-1.9-1.1c0-0.1-0.1-0.3-0.1-0.4c0-0.7,0.6-1.3,1.3-1.2c0.3,0,0.5,0.1,0.7,0.2c-0.1,0-0.2,0.1-0.3,0.1
			c-0.3,0.2-0.4,0.7-0.2,1l0,0c0.2,0.3,0.7,0.4,1,0.2c0.4-0.3,0.3-0.8,0.1-1.2c-1-1.5-3.3-0.7-3.7,0.9c-0.1,0.6,0.1,1.1,0.4,1.5
			c-0.5-0.2-1-0.5-1.4-0.8c-0.4-0.4-0.7-0.9-0.9-1.4c0-0.1-0.1-0.2-0.1-0.3l0,0C66.9,6.1,68,6,69,6.4c0.2-0.5,0.1-1-0.2-1.4
			c1.7,1.1,2.6-0.8,3.9-0.6c-1.4-2.1-4-2-5-0.9c-0.3,0.3-0.5,0.7-0.7,1.1c0.4-0.5,1.1-0.8,1.8-0.9c-1.2,0.5-2,1.6-2.3,2.8v0.1
			c0,0.1,0,0.3,0,0.4c0,0.2,0,0.3,0,0.5c0,0.1,0,0.1,0,0.2l0,0c0,0.1,0,0.2,0.1,0.3c0.2,0.6,0.5,1.2,1,1.6c0.8,0.8,1.9,1.2,3,1.2
			c0.3,0,0.5,0,0.8-0.1c0.1,0,0.3-0.1,0.4-0.1l0,0l0.4-0.1l0,0c0.9-0.4,1.7-1.1,2.2-2.1C74.8,7.7,75,7,75.1,6.2s0-1.6-0.3-2.3
			C74,2.4,72.5,1.2,70.6,0.9L70.6,0.9z M39.1,7.2L39.1,7.2c0,0-0.7,1.9-2.1,2.2c1-0.6,1.7-1.5,2-2.5c-0.5,0.6-1,1-1.7,1.4
			s-1.7,1.7-2.5,1.4c0.5,0.8,2.1,0.9,2.9,0.3c0.6-0.4,0.9-1,1.1-1.7C38.9,7.9,39,7.5,39.1,7.2z M6.3,0.9c-1.5,0-2.9,0.6-3.9,1.7
			c1.1-1.6,2.3-2,4.7-2C3.6,0.1,0.9,0.5,0,4.2c0.8-0.7,1.8,0.7,2.9-0.7C3.7,2.3,4.9,1.4,6.3,0.9z M19.5,6.7
			c-1.7-1.6-3.4-2.5-5.3-0.8c0.7-0.1,0.7,1.1,1.9,0.8C17,6.4,18,6.3,19,6.6C18.2,6,17.1,5.8,16.1,6C17.4,5.5,18.3,5.8,19.5,6.7z
			 M22.5,8.4C19.6,6.6,16.9,6,14.7,9c1-0.3,1.4,1.4,3,0.5c1.2-0.8,2.6-1.2,4.1-1.1c-1.4-0.6-2.9-0.6-4.3,0.1
			C19,7.5,20.3,7.6,22.5,8.4z M36.2,3.4c0.7-0.2,1.4,0.1,1.8,0.7C38.5,5,37.6,6.2,36.7,6c0.1-0.1,0.2-0.2,0.2-0.3
			c0.2-0.4,0.1-0.8-0.3-1c0,0,0,0-0.1,0c-0.4-0.2-0.8,0-1,0.3l0,0c-0.2,0.5,0.1,0.9,0.5,1.1c1.5,0.8,3.3-1,2.8-2.6
			c-0.4-0.9-1.4-1.4-2.4-1.2c-1.1,0.3-2.2,1.8-3,2.7c-0.6,0.6-1.2,1.2-1.9,1.7c-0.2-0.1-0.4-0.2-0.6-0.2c-0.6,0-1,0.4-1,1
			c0,0,0,0,0,0.1c-0.4,0.1-0.8,0.2-1.3,0.3c-1,0.2-2,0.2-3-0.1s-1.8-0.9-2.4-1.7c-0.5-0.7-0.7-1.7-0.5-2.5c0-0.2,0.1-0.4,0.1-0.5
			c0.3-1,1-1.8,2-2.2c0.9-0.4,1.8-0.5,2.7-0.3c0.1,0,0.3,0.1,0.4,0.1c0.4,0.1,0.8,0.4,1.1,0.7c0.2,0.3,0.4,0.6,0.5,0.9
			c0.1,1.4-1,1.6-2,1.3c-0.2,0.5,0,1.1,0.4,1.4c-1.8-0.9-2.5,1-3.8,0.9c1.6,2,4.2,1.7,5,0.4c0.3-0.4,0.5-0.7,0.7-1.2
			c-0.4,0.5-1,0.9-1.7,1c1.5-0.7,2.3-2.3,2-3.8c-0.1-0.5-0.3-1-0.7-1.3c-0.5-0.5-1.2-0.9-1.9-1c-1-0.2-2.1-0.1-3,0.3
			c-1.1,0.5-1.9,1.4-2.3,2.5C22.1,3,22.1,3.2,22,3.4c-0.2,1,0,2.1,0.5,3c0.7,0.9,1.6,1.6,2.7,1.9C26,8.5,26.5,8.6,27,8.6h-0.1
			c-2.2-0.1-4.4-1.2-6.9-3.1L19.3,5c-3.3-2.5-6.5-4.9-11-4.1C6.4,1.1,4.8,2.3,4.1,4.1C3.8,4.8,3.7,5.6,3.8,6.3
			c0.1,0.8,0.3,1.5,0.7,2.2c0.5,0.9,1.3,1.6,2.2,2.1l0,0c0.1,0.1,0.2,0.1,0.4,0.1l0,0c0.1,0,0.3,0.1,0.4,0.1
			c0.3,0.1,0.5,0.1,0.8,0.1c1.1,0,2.2-0.4,3-1.2c0.5-0.5,0.8-1,1-1.6c0-0.1,0-0.2,0.1-0.3l0,0c0-0.1,0-0.1,0-0.2c0-0.2,0-0.3,0-0.5
			c0-0.1,0-0.3,0-0.4V6.6C12,5.3,11.2,4.2,10,3.7c0.7,0,1.3,0.4,1.8,0.9c-0.2-0.4-0.4-0.8-0.7-1.1c-1-1.1-3.6-1.2-5,0.9
			C7.5,4.1,8.4,6,10,4.9c-0.4,0.4-0.4,1-0.2,1.4c0.9-0.3,2.1-0.3,2,1.2l0,0c0,0.1,0,0.2-0.1,0.3c-0.2,0.5-0.5,1-0.9,1.4
			S9.9,9.9,9.4,10C9.8,9.6,10,9,9.9,8.5C9.6,7,7.2,6.2,6.3,7.7C6.1,8.1,5.9,8.6,6.4,8.9c0.3,0.2,0.8,0.2,1-0.2
			c0.2-0.3,0.2-0.8-0.2-1l0,0C7.1,7.7,7,7.6,6.9,7.6c0.6-0.4,1.4-0.3,1.8,0.3c0.2,0.2,0.2,0.5,0.2,0.7c0,0.8-0.7,1.5-1.5,1.6
			c-0.1,0-0.3,0-0.4,0c-0.9-0.4-1.6-1-2.1-1.9C4.6,7.6,4.4,7,4.3,6.3s0-1.4,0.3-2c0.7-1.6,2.1-2.6,3.8-2.8c4.3-0.7,7.3,1.5,10.6,4
			L19.7,6c2.5,1.9,4.8,3.1,7.1,3.2c1.2,0,2.4-0.2,3.5-0.8c0.2,0.2,0.5,0.3,0.8,0.3c0.6,0,1-0.4,1-1c0,0,0,0,0-0.1s0-0.2-0.1-0.3
			c0.7-0.5,1.3-1.1,1.9-1.8C34.5,4.8,35.3,3.7,36.2,3.4z" />
        </g>
    </g>
</svg>
