<?xml version="1.0" encoding="utf-8"?>
<?xml-stylesheet type="text/css" href="../../css/style.css" ?>
<!-- Generator: Adobe Illustrator 24.0.1, SVG Export Plug-In . SVG Version: 6.00 Build 0)  -->
<svg version="1.1" id="Layer_1" xmlns="http://www.w3.org/2000/svg" xmlns:xlink="http://www.w3.org/1999/xlink" x="0px" y="0px" viewBox="0 0 300 106.9" style="enable-background:new 0 0 300 106.9;" xml:space="preserve">
    <style type="text/css">

        path {
            fill: var(--pcolorlogo);
        }

        .st0 {
            fill: var(--scolorlogo);
        }

        .st1 {
            fill-opacity: 1;
        }

        .st2 {
            fill-opacity: .9;
        }

        .st3 {
            fill-opacity: .8;
        }

        .st4 {
            fill-opacity: .7;
        }

        .st5 {
            fill-opacity: .6;
        }

        .st6 {
            fill-opacity: .5;
        }

        .st7 {
            fill: var(--scolorlogo);
        }

    </style>
    <g id="Ebene_2">
        <g id="ayurdeva-logo-web">
            <path class="st0" d="M137.6,89.9c-2.2,1.2-4.6,1.7-7.1,1.6c-5.4,0-8-3.5-8-8.3V59.3h-3.4v24.1c0,6.1,3,10.7,11,10.7
			c3.8,0.1,7.6-0.9,10.9-2.8v-32h-3.4L137.6,89.9z M100.4,86.1c-0.6,2.1-1,3.8-1,3.8h-0.1c-0.2-1.3-0.4-2.6-0.8-3.8l-8.2-26.8h-3.7
			l11.5,34.1l-5.7,13.6h3.8L112,59.3h-3.1L100.4,86.1z M69.3,58.7c-3.2,0.1-6.4,0.9-9.2,2.5l0.9,2.2c2.4-1.4,5.1-2.2,7.9-2.2
			c4.7,0,8.3,1.7,8.3,7.8v2.3c-10.7,1.1-19,3.9-19,13c0,5.7,3.6,9.7,11.9,9.7c3.6,0.1,7.1-0.7,10.3-2.4V69
			C80.4,61.1,75,58.7,69.3,58.7z M77.2,90.5c-2.1,1-4.3,1.4-6.6,1.4c-5.6,0-9-2.2-9-7.7c0-7.6,5.7-9.6,15.7-10.9L77.2,90.5z
			 M274.5,58.7c-3.2,0.1-6.4,0.9-9.2,2.5l1,2.2c2.4-1.4,5.1-2.2,7.9-2.2c4.7,0,8.3,1.7,8.3,7.8v2.3c-10.7,1.1-19,3.9-19,13
			c0,5.7,3.6,9.7,11.9,9.7c3.6,0.1,7.1-0.7,10.3-2.4V69C285.6,61.1,280.2,58.7,274.5,58.7z M282.4,90.5c-2.1,1-4.3,1.4-6.6,1.4
			c-5.6,0-9-2.2-9-7.7c0-7.6,5.7-9.6,15.7-10.9L282.4,90.5z M152.4,93.3h3.4V62.6c1.9-1.4,5.4-1.8,8.4-0.9l1-3
			c-7.5,0-9.7,0.8-12.8,2.4L152.4,93.3z M190.4,59.9c-1.8-0.5-3.6-0.8-5.5-0.8c-8.9,0-14.7,6.5-14.7,18c0,9.7,4.6,16.9,14.1,16.9
			c4.2,0,7.6-1.1,9.5-2.3V43.7h-3.4L190.4,59.9z M190.4,90.4c-1.3,0.9-3.1,1.1-5.8,1.1c-8,0-11-6.6-11-15c0-7.7,2.7-15.5,11.8-15.5
			c1.7,0,3.4,0.2,5,0.7V90.4z M246.7,86.1c-0.4,1.2-0.7,2.4-0.9,3.6h-0.1c-0.2-1.2-0.4-2.4-0.8-3.6l-8.3-26.8h-3.7l11.5,34.1h2.8
			l11.1-34h-3.1L246.7,86.1z M215.3,58.7c-7.1,0-12.9,5.6-12.9,17.6C202.4,89,208.8,94,217,94c3.2,0.1,6.4-0.7,9.3-2.2l-1.1-2.5
			c-2.5,1.4-5.3,2.1-8.1,2c-6.8,0-10.9-4.5-11.4-13.5l21.9-3.2C227.5,63.3,222.7,58.7,215.3,58.7z M205.6,75.7
			c0-10.4,4.2-14.5,9.7-14.5s8.9,3.2,8.9,11.7L205.6,75.7z" />
            <path class="st1" d="M27.6,73.2c-21.1,0-31.8-9.5-26.1-15.8c1.8-2,4.8-3.8,11.5-3c8.7,1.1,13,10.5,24.5,10.5
			c12.7,0,18.8-6.9,18.8-6.9S49.1,73.2,27.6,73.2" />
            <path class="st2" d="M23.2,56.3C5,45.8,0.5,32.2,8.5,29.6c2.6-0.8,6-0.9,11.4,3.2c7,5.3,6.1,15.6,16,21.3
			c11,6.4,19.7,3.5,19.7,3.5S41.9,67,23.2,56.3" />
            <path class="st3" d="M28.1,39.5C17.6,21.3,20.5,7.3,28.8,9.1c2.6,0.6,5.7,2.3,8.3,8.5c3.5,8.1-2.5,16.5,3.2,26.4
			c6.4,11,15.3,12.8,15.3,12.8S38.9,58.2,28.1,39.5" />
            <path class="st4" d="M40.9,27.6c0-21.1,9.5-31.8,15.8-26.1c2,1.8,3.8,4.8,3,11.5c-1.1,8.7-10.5,13-10.5,24.5
			c0,12.7,6.9,18.8,6.9,18.8S40.9,49.1,40.9,27.6" />
            <path class="st5" d="M58,23.6C68.5,5.3,82.1,0.8,84.7,8.9c0.8,2.6,0.9,6-3.2,11.4c-5.3,7-15.6,6.1-21.3,16
			c-6.4,11-3.5,19.7-3.5,19.7S47.2,42.2,58,23.6" />
            <path class="st6" d="M74.8,28.7c18.2-10.5,32.3-7.7,30.5,0.6c-0.6,2.7-2.3,5.7-8.5,8.3c-8.1,3.5-16.5-2.5-26.4,3.2
			c-11,6.4-12.8,15.3-12.8,15.3S56.2,39.5,74.8,28.7" />
            <path class="st7" d="M296.5,84.6c0,0.8-0.6,1.1-1.3,1.1h-0.5v-2c0.2-0.1,0.4-0.1,0.6-0.1C295.9,83.6,296.5,83.8,296.5,84.6
			 M297.4,88.5l-1.8-2.5c0.8,0.1,1.5-0.5,1.6-1.3c0,0,0-0.1,0-0.1c0-1-0.8-1.5-1.8-1.5c-0.4,0-0.9,0.1-1.2,0.3v5.1h0.6v-2.4h0.2
			l1.7,2.4L297.4,88.5z M299.5,86c0,2.2-1.8,3.9-3.9,3.9s-3.9-1.8-3.9-3.9s1.8-3.9,3.9-3.9S299.5,83.8,299.5,86L299.5,86 M300,86
			c0-2.5-2-4.5-4.4-4.5c-2.5,0-4.5,2-4.5,4.4c0,2.5,2,4.5,4.4,4.5c0,0,0,0,0,0C298,90.4,300,88.5,300,86" />
        </g>
    </g>
</svg>
